<svg version="1.1" id="Layer_1" xmlns="http://www.w3.org/2000/svg" xmlns:xlink="http://www.w3.org/1999/xlink" x="0px" y="0px"
	 width="100%" viewBox="0 0 464 368" enable-background="new 0 0 464 368" xml:space="preserve">
<path fill="#000000" opacity="1.000000" stroke="none" 
	d="
M217.978470,205.109161 
	C212.603806,200.645004 207.200287,200.266663 200.991180,202.516357 
	C195.065796,204.663223 188.820938,205.943420 182.692291,207.509827 
	C177.131348,208.931107 176.862518,208.686279 176.806641,202.727310 
	C176.753525,197.062973 176.601120,191.392960 176.791962,185.735535 
	C176.896484,182.636765 175.699600,180.807602 173.052246,179.383820 
	C167.919632,176.623444 162.903107,173.646835 157.845810,170.747009 
	C152.974197,167.953644 152.912735,167.540146 156.759338,163.640625 
	C167.051544,153.206772 177.344055,142.773193 187.647491,132.350418 
	C188.695999,131.289780 189.889740,130.351334 190.201218,128.719681 
	C189.166046,126.685043 187.282166,126.218346 184.937485,125.729980 
	C184.259979,130.363190 183.277710,134.869003 177.304764,136.813004 
	C176.362381,129.736359 176.429428,123.023643 177.188492,116.345810 
	C177.396286,114.517738 179.645004,113.763794 181.228134,112.859039 
	C186.577942,109.801620 191.899155,106.689354 197.323227,103.768761 
	C199.862686,102.401413 201.250046,100.574875 201.947891,97.717697 
	C203.882584,89.796577 206.271484,81.986641 208.221085,74.068802 
	C209.192413,70.123932 210.731888,69.047722 214.414062,71.343567 
	C219.498108,74.513489 224.857010,77.243835 229.927597,80.433617 
	C232.676514,82.162880 234.955353,82.253250 237.722427,80.511009 
	C242.652740,77.406746 247.756058,74.575447 252.809708,71.669434 
	C257.460754,68.994942 258.019470,69.230896 259.486450,74.591957 
	C263.352478,88.720291 267.175201,102.860504 271.044952,116.987816 
	C271.391785,118.253967 271.955261,119.460770 272.417084,120.692390 
	C274.868469,121.034439 276.171631,119.412994 278.127563,117.977699 
	C274.039368,114.981232 271.085846,111.449127 271.962219,104.977043 
	C278.537720,108.303612 284.635254,111.381325 290.093048,115.589874 
	C291.488586,116.665993 291.150360,118.664597 291.155945,120.320892 
	C291.177246,126.651932 291.287292,132.986267 291.118683,139.312820 
	C291.036255,142.405029 292.088226,144.700302 294.266876,146.814911 
	C299.645020,152.034927 304.891418,157.390823 310.181091,162.701736 
	C311.564392,164.090576 313.217621,165.302139 313.767242,168.041245 
	C307.713593,171.616684 301.697479,175.428802 295.428619,178.766220 
	C292.165100,180.503662 290.936951,182.669296 291.092834,186.287018 
	C291.336517,191.941269 291.190216,197.613876 291.150818,203.278320 
	C291.112976,208.723724 290.531982,209.152252 285.336090,207.760056 
	C271.344849,204.011200 257.358307,200.244888 243.361755,196.516052 
	C241.944229,196.138397 240.471497,195.968002 239.090134,195.713531 
	C237.515167,197.740509 237.859024,199.625778 238.631500,202.004745 
	C243.014557,200.068512 247.383972,199.375427 252.122040,202.944916 
	C246.579407,207.486130 240.505020,210.391495 234.569839,213.471649 
	C233.133743,214.216949 231.690033,213.054321 230.397217,212.309525 
	C226.356628,209.981796 222.330414,207.629105 217.978470,205.109161 
M206.161209,193.576080 
	C211.377029,192.114716 216.592865,190.653351 221.936172,189.156265 
	C220.779633,186.405624 218.679214,185.686050 216.970108,185.038818 
	C209.008652,182.023819 206.332489,176.346893 207.731384,168.261917 
	C208.295273,165.002869 206.711380,162.911179 203.842209,161.505585 
	C202.052994,160.629074 200.453476,159.363083 198.659271,158.499512 
	C195.093613,156.783295 193.499084,154.166473 193.776047,150.122589 
	C194.041122,146.252151 193.833252,142.349319 193.833252,137.523682 
	C187.546143,142.650696 183.262634,147.068375 184.157730,154.966125 
	C184.776596,160.426437 184.869736,166.139343 183.787949,171.984589 
	C172.929276,170.241379 178.610153,161.216904 175.843567,155.540070 
	C171.984406,158.685120 168.648254,161.896835 165.433762,166.158386 
	C178.849411,173.907654 191.829346,181.405258 205.149323,189.099274 
	C196.962265,196.344589 191.399551,188.254364 184.333817,186.897903 
	C184.333817,189.649063 184.448654,191.950409 184.308472,194.236099 
	C184.061371,198.265488 185.731522,199.187698 189.456543,198.048828 
	C194.705658,196.443970 200.056534,195.172012 206.161209,193.576080 
M258.604279,105.987503 
	C252.187973,101.506271 244.479233,98.963127 238.524933,93.297813 
	C245.520538,85.356224 250.591705,94.064484 256.891937,94.875839 
	C255.286621,90.055695 255.438873,85.281395 252.053284,81.082542 
	C239.022354,88.533165 226.174271,95.879250 212.848221,103.498611 
	C211.030090,93.047348 219.538864,91.549873 225.008408,87.265038 
	C221.853073,84.342720 218.707352,82.761360 214.694427,81.150131 
	C210.805435,93.522713 207.625946,105.706680 204.681900,118.278427 
	C207.552277,118.095848 209.310028,116.960220 210.793671,115.769073 
	C216.851547,110.905548 222.687668,110.099884 228.867783,115.619026 
	C232.226288,118.618340 235.849350,118.005920 239.301636,115.380203 
	C240.487549,114.478210 241.908752,113.887192 243.103561,112.994888 
	C246.189560,110.690163 249.016312,110.972626 252.238083,113.019768 
	C255.344177,114.993401 258.380066,117.398064 262.703552,117.967949 
	C262.157654,113.639679 261.569153,109.789795 258.604279,105.987503 
M274.049805,151.105881 
	C274.732574,155.665512 271.406128,157.398697 268.173431,158.650711 
	C261.626251,161.186401 258.910614,165.618622 260.163055,172.514694 
	C260.250885,172.998322 260.112335,173.520432 260.179718,174.010818 
	C260.707367,177.851822 259.013733,180.203812 255.595169,181.930756 
	C252.000931,183.746475 248.668945,186.081345 244.867065,188.406662 
	C254.885620,192.701874 255.732590,192.675674 264.045502,187.976990 
	C265.928528,186.912659 267.697449,185.613220 269.655640,184.722702 
	C272.883820,183.254639 275.565521,180.474670 279.579437,180.275284 
	C283.562958,190.517548 272.291534,189.544556 269.321777,194.817322 
	C273.228851,197.204956 277.582184,197.761520 283.089478,198.636154 
	C283.089478,183.189529 283.089478,168.238510 283.089478,152.758560 
	C293.302856,156.309723 290.356354,164.743668 291.617157,171.474304 
	C295.651428,169.934525 298.819672,168.375778 300.833893,166.117981 
	C291.953278,157.120544 283.285095,148.338333 274.055908,138.987732 
	C274.055908,143.007889 274.055908,146.607727 274.049805,151.105881 
M217.117950,122.510666 
	C213.973328,124.443001 210.408340,125.809631 207.578964,129.135803 
	C216.368805,134.267303 224.675446,139.106186 232.968094,143.968964 
	C234.261246,144.727280 235.481659,144.653687 236.729004,143.929977 
	C245.158051,139.039536 253.587601,134.149963 262.125214,129.197327 
	C254.095444,120.862274 248.951141,119.772507 240.296646,125.260071 
	C236.154587,127.886444 233.023590,127.809212 229.073532,125.072647 
	C225.843231,122.834747 222.463364,119.502785 217.117950,122.510666 
M225.663239,196.172150 
	C224.345444,196.627151 222.694397,196.513046 221.988815,198.402634 
	C224.230713,199.960007 226.200668,201.946991 229.694519,202.088303 
	C228.965210,199.544861 232.297684,195.469345 225.663239,196.172150 
M190.682755,119.068565 
	C192.080154,119.800415 193.209946,121.237923 195.265991,120.725540 
	C196.283493,118.607941 197.109177,116.391228 196.936142,113.281815 
	C194.252335,115.100304 190.468002,114.508736 190.682755,119.068565 
M277.230255,129.170197 
	C278.451843,131.125443 280.179871,132.502502 282.455719,134.072205 
	C283.012054,130.962402 283.683563,128.399460 281.993317,125.816658 
	C280.089569,126.581314 278.283844,126.943405 277.230255,129.170197 
z"/>
<path fill="#000000" opacity="1.000000" stroke="none" 
	d="
M343.226929,249.989960 
	C343.221771,253.481400 343.155090,256.481354 343.237335,259.477264 
	C343.309814,262.116821 342.437073,263.508820 339.501678,263.417542 
	C336.810638,263.333893 334.966858,262.754150 334.877319,259.587280 
	C334.833405,258.035706 335.430908,256.356415 334.329437,254.766998 
	C331.654541,257.437469 333.101685,263.399261 327.358765,263.296478 
	C321.472992,263.191132 323.092651,256.970306 319.793030,254.001877 
	C319.793030,256.155853 319.849243,257.925293 319.779938,259.689789 
	C319.673462,262.401154 318.155365,263.392792 315.512665,263.338806 
	C312.751526,263.282379 311.652161,262.023041 311.662628,259.337860 
	C311.687225,253.018784 311.613892,246.699188 311.557526,240.380005 
	C311.539581,238.368866 311.182190,235.957733 313.927673,235.668198 
	C316.762085,235.369263 320.084106,234.449203 321.673859,238.257828 
	C323.316162,242.192352 324.980560,246.117645 326.878723,250.625107 
	C330.037933,247.038803 331.088470,243.373917 332.366028,239.864090 
	C333.452393,236.879562 335.202362,235.120743 338.571198,235.142807 
	C341.579163,235.162506 343.326447,236.208511 343.242798,239.504196 
	C343.158295,242.832993 343.227997,246.165710 343.226929,249.989960 
z"/>
<path fill="#000000" opacity="1.000000" stroke="none" 
	d="
M217.255280,258.849182 
	C218.095337,260.421906 219.646805,262.232819 217.637909,262.910309 
	C215.083054,263.771912 211.933105,264.355438 209.883865,261.512634 
	C208.480316,259.565521 207.385574,257.395813 206.029480,255.118561 
	C204.711487,256.895630 205.234879,258.441559 205.123932,259.864288 
	C204.927689,262.380554 203.614365,263.325439 201.204910,263.330566 
	C198.925446,263.335419 197.091980,262.752808 197.060349,260.152740 
	C196.973206,252.990356 197.002350,245.825928 197.060440,238.662918 
	C197.073898,237.002655 197.947906,235.822479 199.723892,235.558365 
	C204.561142,234.838989 209.421097,234.592087 213.969315,236.696716 
	C219.251862,239.141159 221.270828,245.677933 217.342712,249.540054 
	C213.825836,252.997849 215.003799,255.484680 217.255280,258.849182 
M210.480164,244.630188 
	C209.728165,242.348724 208.013626,241.950668 206.153244,242.868164 
	C204.953491,243.459900 204.947937,245.066299 205.814789,245.909439 
	C207.403030,247.454285 209.086823,247.225616 210.480164,244.630188 
z"/>
<path fill="#000000" opacity="1.000000" stroke="none" 
	d="
M134.176483,239.266571 
	C134.628204,241.909088 133.065079,244.959946 136.839951,245.758881 
	C140.831467,246.603683 142.478958,245.261826 142.731964,240.868851 
	C142.834259,239.092758 142.358429,237.125290 144.273865,235.907318 
	C147.232666,234.025848 150.820358,235.867493 150.934021,239.637543 
	C151.129501,246.121994 150.990982,252.617233 150.951584,259.107697 
	C150.934723,261.887299 149.705460,263.365326 146.680954,263.350616 
	C143.498123,263.335144 142.843048,261.591644 142.713638,258.887695 
	C142.609848,256.718903 143.728683,254.013229 140.946442,252.636719 
	C137.499451,250.931320 134.439606,252.909821 134.213120,256.895874 
	C134.165939,257.726013 134.168457,258.559998 134.175812,259.391968 
	C134.199249,262.040527 133.019241,263.348022 130.247375,263.335236 
	C127.610870,263.323090 126.093628,262.272644 126.072914,259.566071 
	C126.020699,252.743668 126.000473,245.920685 126.026718,239.098175 
	C126.034706,237.021759 126.985764,235.553513 129.240280,235.394012 
	C131.773514,235.214798 133.998001,235.580688 134.176483,239.266571 
z"/>
<path fill="#000000" opacity="1.000000" stroke="none" 
	d="
M304.110870,244.083710 
	C304.104919,246.554688 304.142090,248.553528 304.083160,250.549530 
	C303.829559,259.137695 299.649292,263.427216 291.602112,263.397308 
	C283.989990,263.369019 279.987000,259.018311 279.810059,250.499542 
	C279.740936,247.172089 279.868134,243.839783 279.764465,240.514084 
	C279.667603,237.405579 280.491058,235.287003 284.121368,235.304642 
	C287.926331,235.323135 288.260071,237.772324 288.211151,240.708038 
	C288.150146,244.368820 288.204285,248.032837 288.277618,251.694061 
	C288.322144,253.916718 289.141785,255.720505 291.687134,255.755066 
	C294.322632,255.790863 295.638245,254.183609 295.700256,251.651764 
	C295.789886,247.991730 295.816040,244.326859 295.735748,240.666977 
	C295.670410,237.689087 296.113586,235.320648 299.876587,235.291428 
	C303.648193,235.262161 304.173248,237.654526 304.091064,240.613968 
	C304.063354,241.611801 304.101624,242.611450 304.110870,244.083710 
z"/>
<path fill="#000000" opacity="1.000000" stroke="none" 
	d="
M260.736633,243.287109 
	C262.183380,246.443207 265.422302,246.326904 267.837738,247.618240 
	C271.483276,249.567276 273.638428,252.261398 272.709351,256.441254 
	C271.782288,260.612152 268.983246,263.068359 264.602203,263.321716 
	C261.101593,263.524109 257.496765,263.783997 254.641449,261.161194 
	C252.927643,259.586884 250.836639,257.535522 252.381454,255.214569 
	C253.841522,253.020889 256.595978,253.798355 258.805847,254.654205 
	C260.452026,255.291794 261.626343,257.742615 263.963135,255.948044 
	C263.835602,253.093781 261.521790,252.981918 259.774384,252.336212 
	C255.755798,250.851151 251.855728,249.331314 251.706390,244.078461 
	C251.606537,240.565796 252.996582,237.922516 256.210205,236.398621 
	C260.824158,234.210663 265.307190,234.501312 269.380585,237.622147 
	C271.083923,238.927170 272.973602,240.746643 271.734955,243.091019 
	C270.623993,245.193695 268.150513,244.094894 266.246643,244.271255 
	C264.287445,244.452774 263.100647,241.411987 260.736633,243.287109 
z"/>
<path fill="#000000" opacity="1.000000" stroke="none" 
	d="
M206.257782,288.325317 
	C206.129288,289.380585 206.138702,290.216705 206.057922,291.043976 
	C205.836914,293.307434 204.481033,294.234741 202.308243,294.067200 
	C200.145279,293.900360 199.635101,292.425110 199.637405,290.570679 
	C199.643372,285.738678 199.652496,280.906616 199.637985,276.074677 
	C199.631912,274.052429 200.108505,272.407959 202.478851,272.124207 
	C204.663330,271.862732 206.460602,272.429199 207.418518,274.601105 
	C208.755173,277.631683 210.065109,280.674042 211.599060,284.199982 
	C214.068634,281.384827 214.537949,278.200256 215.705673,275.386169 
	C216.748672,272.872650 218.343445,271.673676 221.106094,272.131531 
	C224.038223,272.617462 224.125320,274.820343 224.143326,277.048492 
	C224.174301,280.880676 224.220749,284.714752 224.133606,288.545135 
	C224.079437,290.926361 224.780045,293.918121 220.897781,294.076660 
	C216.859451,294.241608 217.969528,290.893036 217.393387,288.752625 
	C216.339508,288.367126 216.276764,289.240112 216.057480,289.767151 
	C215.157455,291.930328 214.505127,294.340820 211.398590,294.100677 
	C208.571808,293.882172 208.299835,291.494110 207.532913,289.513947 
	C207.308746,288.935181 207.230515,288.165771 206.257782,288.325317 
z"/>
<path fill="#000000" opacity="1.000000" stroke="none" 
	d="
M350.994446,246.083130 
	C351.226715,234.544983 351.360474,234.426361 362.366577,235.354156 
	C363.525635,235.451843 364.687775,235.554703 365.849548,235.569275 
	C368.124359,235.597824 369.185913,236.725189 369.156219,238.980347 
	C369.125244,241.331619 367.733582,242.012253 365.630798,242.264099 
	C363.683929,242.497284 361.228180,241.283752 359.879059,243.867691 
	C360.580994,246.504364 362.789703,245.656235 364.413666,245.899826 
	C366.438232,246.203491 367.945007,246.852890 367.975952,249.216721 
	C368.008026,251.664017 366.500488,252.316833 364.410828,252.330582 
	C363.746155,252.334946 363.081116,252.374573 362.417480,252.417038 
	C360.961456,252.510208 359.698273,253.010849 359.636688,254.661972 
	C359.569916,256.452789 360.965210,256.627563 362.367950,256.831909 
	C365.057617,257.223755 369.366516,255.772568 368.986115,260.518341 
	C368.615173,265.146149 364.331238,263.244080 361.759308,263.278564 
	C350.366089,263.431183 351.116425,264.488068 351.079987,253.052521 
	C351.073090,250.890930 351.015289,248.729523 350.994446,246.083130 
z"/>
<path fill="#000000" opacity="1.000000" stroke="none" 
	d="
M163.390839,235.215698 
	C166.994156,235.321762 170.151855,235.432907 173.305374,235.616455 
	C175.636780,235.752136 176.415894,237.200256 176.279984,239.353210 
	C176.145676,241.480545 174.782745,242.025818 172.919556,242.243301 
	C171.065964,242.459686 168.840332,241.469955 167.449646,243.661484 
	C167.783249,246.488586 170.057266,245.701859 171.687683,245.903687 
	C173.744507,246.158279 175.194885,246.819962 175.191986,249.221237 
	C175.188995,251.685150 173.690918,252.226761 171.615112,252.354828 
	C169.915176,252.459732 167.426727,251.825394 167.389923,254.551117 
	C167.353073,257.278198 169.827911,256.725403 171.543472,256.845398 
	C173.985306,257.016205 176.472000,257.117218 176.238235,260.515411 
	C176.018417,263.711151 173.454651,263.346832 171.355133,263.332428 
	C156.443604,263.230194 158.972473,264.943359 158.724167,251.079605 
	C158.658569,247.417099 158.821899,243.748260 158.680450,240.090042 
	C158.560715,236.993195 159.828979,235.373550 163.390839,235.215698 
z"/>
<path fill="#000000" opacity="1.000000" stroke="none" 
	d="
M232.517242,235.364777 
	C235.249115,235.332169 237.575592,235.169769 239.898804,235.207794 
	C242.185806,235.245224 244.249634,235.666458 244.317368,238.705368 
	C244.385132,241.744736 242.540344,242.214539 240.100464,242.258545 
	C238.359833,242.289932 236.436661,241.824432 234.887756,243.396378 
	C235.281906,246.498383 237.696228,245.710388 239.446350,245.922348 
	C241.395432,246.158386 243.093079,246.469604 243.186813,248.973053 
	C243.289627,251.718643 241.647217,252.272446 239.365768,252.370331 
	C237.657257,252.443634 235.165878,251.957687 235.385437,254.772858 
	C235.592270,257.424927 238.063477,256.687500 239.752182,256.842255 
	C241.976227,257.046082 244.236206,257.016022 244.242676,260.177887 
	C244.249313,263.422028 241.936447,263.357056 239.727631,263.342590 
	C224.409134,263.242340 227.096115,265.063293 226.810684,250.886765 
	C226.740326,247.392365 226.946793,243.888275 226.773666,240.401169 
	C226.579224,236.485153 228.217194,234.794800 232.517242,235.364777 
z"/>
<path fill="#000000" opacity="1.000000" stroke="none" 
	d="
M278.038879,273.698914 
	C280.874115,270.891418 283.152924,272.094360 285.042694,274.297913 
	C286.754791,276.294312 288.158936,278.554810 289.861267,280.924957 
	C291.373657,279.307129 290.665375,277.577972 290.786163,276.065155 
	C290.967743,273.790741 291.701843,272.149658 294.274292,272.112488 
	C296.926483,272.074127 297.721222,273.913086 297.752014,276.067017 
	C297.818604,280.720825 297.733521,285.378265 297.625946,290.032288 
	C297.588562,291.650177 297.763245,293.550446 295.531830,294.020996 
	C293.470184,294.455780 291.505432,294.274689 290.152466,292.383423 
	C288.517365,290.097748 286.949066,287.764343 285.137756,285.141632 
	C283.667694,286.766449 284.328766,288.468140 284.206879,289.953156 
	C284.028717,292.123505 283.589783,293.988708 280.919342,294.073486 
	C278.111938,294.162628 277.713226,292.236725 277.728210,290.063507 
	C277.764832,284.742004 277.828949,279.420624 278.038879,273.698914 
z"/>
<path fill="#000000" opacity="1.000000" stroke="none" 
	d="
M176.462753,274.294403 
	C184.358063,270.366577 190.919556,272.170074 193.482803,278.658966 
	C195.665558,284.184662 193.707947,290.183807 188.808212,292.984253 
	C184.154343,295.644165 177.799637,294.366119 174.387543,290.084015 
	C170.488235,285.190460 171.094925,279.842804 176.462753,274.294403 
M179.071060,283.449402 
	C179.047562,286.431763 180.489716,288.254333 183.499115,288.128662 
	C186.252975,288.013641 187.465637,285.958221 187.637100,283.436310 
	C187.814301,280.830322 186.633774,278.846466 183.926254,278.460754 
	C180.890442,278.028290 179.353012,279.723938 179.071060,283.449402 
z"/>
<path fill="#000000" opacity="1.000000" stroke="none" 
	d="
M97.613205,238.218597 
	C98.022491,236.271606 99.159035,235.693436 100.600449,235.650192 
	C105.573799,235.500931 110.548744,235.309418 115.522682,235.320023 
	C117.605774,235.324463 119.571205,235.956284 119.574860,238.671814 
	C119.577789,240.851364 118.513695,242.140488 116.284477,242.209137 
	C113.598106,242.291885 113.023300,243.925278 113.043625,246.210327 
	C113.077606,250.032059 113.019333,253.854736 112.987419,257.676880 
	C112.962402,260.673645 112.772881,263.391174 108.585060,263.349487 
	C104.526390,263.309021 104.698486,260.627930 104.697067,257.881958 
	C104.695518,254.890503 104.633072,251.898758 104.657570,248.907654 
	C104.686485,245.377075 105.137512,241.743393 99.680420,241.972824 
	C97.881500,242.048462 97.505989,240.221878 97.613205,238.218597 
z"/>
<path fill="#000000" opacity="1.000000" stroke="none" 
	d="
M265.883881,274.102631 
	C267.915863,279.416626 269.787720,284.376068 271.595917,289.358643 
	C272.137970,290.852234 273.262024,292.636536 271.265350,293.764130 
	C269.786743,294.599121 267.884521,294.586884 266.621826,293.261658 
	C263.420044,289.901184 260.389069,290.258026 257.179260,293.198730 
	C255.838425,294.427124 254.001358,294.646057 252.533798,293.774567 
	C250.574509,292.611053 251.823318,290.830109 252.335251,289.350281 
	C253.851593,284.967133 255.368332,280.581177 257.030243,276.252106 
	C258.877960,271.438873 261.163055,270.831543 265.883881,274.102631 
z"/>
<path fill="#000000" opacity="1.000000" stroke="none" 
	d="
M161.557373,273.070404 
	C162.200073,273.399414 162.516205,273.527374 162.775955,273.728210 
	C164.690628,275.208801 167.822510,276.692413 166.262115,279.392303 
	C164.799393,281.923096 161.869659,280.742767 159.639236,279.323669 
	C157.531647,277.982697 155.446579,277.913208 153.915909,280.021729 
	C152.556259,281.894684 152.520248,284.188934 153.672302,286.162231 
	C155.035889,288.497894 157.269653,288.231873 159.377274,287.280365 
	C161.775513,286.197662 165.071426,284.205048 166.222656,287.314545 
	C167.399780,290.493958 163.754517,292.313751 161.015228,293.492462 
	C156.693787,295.352020 151.181107,293.915222 148.301193,290.440552 
	C145.234695,286.740784 144.910492,280.847839 147.557907,276.929840 
	C150.435623,272.670990 155.545273,271.163330 161.557373,273.070404 
z"/>
<path fill="#000000" opacity="1.000000" stroke="none" 
	d="
M230.558609,273.802795 
	C234.997437,270.822784 239.363007,271.608704 243.528275,273.385071 
	C246.165588,274.509796 247.342560,277.006073 247.129913,279.934418 
	C246.886353,283.288055 245.044403,285.611023 241.862000,286.416351 
	C238.861191,287.175781 236.748917,288.240784 236.565582,291.789886 
	C236.458328,293.866577 234.666794,294.263489 232.836212,294.084351 
	C230.703857,293.875732 230.082123,292.340637 230.090637,290.578064 
	C230.117004,285.117645 229.564255,279.644501 230.558609,273.802795 
z"/>
<path fill="#000000" opacity="1.000000" stroke="none" 
	d="
M305.518860,280.468384 
	C304.344910,277.914337 302.557892,276.002014 302.577454,273.118378 
	C308.006653,269.728912 309.548340,274.985870 312.327271,277.890289 
	C314.389343,274.653198 316.420990,269.790619 320.442139,272.759064 
	C323.919647,275.326141 319.332336,278.496826 318.191742,281.284302 
	C316.940613,284.341827 314.977448,287.080048 315.263489,290.638245 
	C315.437958,292.807861 314.392029,294.103333 312.056885,294.108795 
	C309.701569,294.114288 308.679047,292.739838 308.828491,290.624329 
	C309.092285,286.889771 307.227692,283.915588 305.518860,280.468384 
z"/>
<path fill="#000000" opacity="1.000000" stroke="none" 
	d="
M195.360504,170.283569 
	C190.174454,169.818207 188.033554,167.333160 189.527451,163.997284 
	C190.348251,162.164383 191.839554,161.163193 193.791733,161.093613 
	C195.797348,161.022125 197.292023,162.083633 198.063065,163.910934 
	C199.234909,166.688202 198.096146,168.691147 195.360504,170.283569 
z"/>
<path fill="#000000" opacity="1.000000" stroke="none" 
	d="
M201.888794,172.164856 
	C204.366837,174.370041 204.851898,176.552170 202.840637,178.919937 
	C201.405991,180.608871 199.603973,181.277878 197.509338,180.234634 
	C195.294357,179.131439 194.295029,177.156677 194.970551,174.855789 
	C195.955490,171.500931 198.334381,170.548080 201.888794,172.164856 
z"/>
<path fill="#000000" opacity="1.000000" stroke="none" 
	d="
M231.722198,108.820129 
	C229.375900,111.615196 227.035156,111.803459 224.725174,109.497482 
	C223.067154,107.842346 222.457047,105.814331 224.012131,103.721016 
	C225.421799,101.823463 227.400925,100.824165 229.621246,101.938324 
	C232.320984,103.293053 233.350998,105.558243 231.722198,108.820129 
z"/>
<path fill="#000000" opacity="1.000000" stroke="none" 
	d="
M239.473724,101.811066 
	C243.329575,101.542625 245.107513,103.368996 245.116333,106.730675 
	C245.122101,108.931717 243.773056,110.556473 241.580917,110.919449 
	C238.936966,111.357224 237.085022,109.978561 236.257690,107.503448 
	C235.343597,104.768837 236.965103,103.157669 239.473724,101.811066 
z"/>
<path fill="#000000" opacity="1.000000" stroke="none" 
	d="
M273.579224,169.253174 
	C271.071228,167.844604 269.749908,166.064682 270.480072,163.446442 
	C271.060791,161.364120 272.582703,160.123047 274.762512,159.930710 
	C276.809418,159.750092 278.198669,160.981659 279.193726,162.550217 
	C281.206604,165.723099 278.896912,168.666382 273.579224,169.253174 
z"/>
<path fill="#000000" opacity="1.000000" stroke="none" 
	d="
M266.401642,171.305069 
	C269.256165,169.863464 271.542267,170.076355 273.198517,172.573730 
	C274.459473,174.475067 274.215149,176.421707 272.581635,177.967987 
	C270.781128,179.672363 268.606445,180.680283 266.403076,178.784668 
	C263.841492,176.580841 263.650635,174.043427 266.401642,171.305069 
z"/>
</svg>